<svg width="384" height="75" viewBox="0 0 384 75" fill="none" xmlns="http://www.w3.org/2000/svg">
<path fill-rule="evenodd" clip-rule="evenodd" d="M119.992 55.3582C122.341 55.3582 124.316 54.5628 125.914 52.9768C127.511 51.3908 128.304 49.4144 128.304 47.0623C128.304 44.7101 127.514 42.7337 125.931 41.1331C124.345 39.5349 122.37 38.742 119.997 38.742H106.286V55.3582H119.995H119.992ZM106.284 18.5219V32.2467H118.905C120.865 32.2467 122.516 31.5879 123.817 30.2801C125.121 28.9772 125.763 27.3375 125.763 25.3758C125.763 23.4116 125.121 21.7719 123.817 20.4714C122.516 19.1636 120.865 18.5194 118.905 18.5194H106.284V18.5219ZM98.3491 62.2389V11.6411H118.905C122.986 11.6411 126.478 12.9831 129.362 15.7013C132.251 18.4023 133.7 21.5084 133.7 25.0171C133.7 27.0325 133.287 28.8869 132.453 30.5802C131.618 32.276 130.787 33.4594 129.967 34.1182L128.666 35.1381C128.854 35.2357 129.109 35.3943 129.459 35.609C129.795 35.8384 130.412 36.3215 131.312 37.0608C132.197 37.8026 132.966 38.6224 133.608 39.5105C134.264 40.4133 134.855 41.5674 135.407 42.9924C135.957 44.4173 136.239 45.896 136.239 47.4161C136.239 51.4762 134.695 54.9458 131.58 57.8762C128.491 60.7798 124.625 62.2438 119.992 62.2438H98.3491V62.2389ZM161.318 33.3374C158.565 33.3374 156.377 34.2231 154.752 35.997C153.116 37.7733 152.296 40.2596 152.296 43.4633V62.2389H145.074V27.5571H152.296V31.1439L152.753 30.69C152.967 30.4753 153.41 30.1386 154.096 29.653C154.777 29.1699 155.506 28.7405 156.27 28.3501C157.023 27.9597 158.003 27.6132 159.188 27.2911C160.379 26.9691 161.576 26.8202 162.77 26.8202H164.569V33.6888C163.602 33.4618 162.514 33.3398 161.32 33.3398L161.318 33.3374ZM170.583 62.2389H177.818V27.5571H170.583V62.2389ZM177.319 19.8273C176.502 20.6471 175.456 21.0643 174.221 21.0643C172.971 21.0643 171.935 20.6495 171.118 19.8273C170.301 18.9977 169.883 17.9729 169.883 16.7236C169.883 15.4719 170.296 14.4373 171.116 13.6175C171.935 12.783 172.969 12.3804 174.219 12.3804C175.454 12.3804 176.5 12.783 177.319 13.6175C178.139 14.4373 178.555 15.4719 178.555 16.7236C178.555 17.9729 178.141 18.9928 177.319 19.8273ZM192.574 15.9818H199.059V27.5571H206.282V34.0474H199.059V52.0349C199.059 53.3403 199.473 54.3895 200.295 55.2216C201.112 56.0414 202.143 56.4464 203.395 56.4464C203.93 56.4464 204.509 56.3903 205.098 56.2707C205.706 56.1634 206.16 56.0267 206.496 55.8803L207.021 55.7461V62.2365C205.586 62.7074 203.894 62.949 201.948 62.949C195.208 62.949 191.852 59.3329 191.864 52.1155V34.0474H185.351V27.5571H188.975C191.382 27.5571 192.574 26.1029 192.574 23.2139V15.9818ZM221.629 35.3016C219.842 36.8314 218.662 38.8347 218.042 41.2795H238.104C237.672 38.8347 236.585 36.8314 234.826 35.3016C233.051 33.7546 230.85 32.9885 228.192 32.9885C225.59 32.9885 223.402 33.7546 221.627 35.2991L221.629 35.3016ZM217.721 47.4112C218.1 49.8585 219.307 51.9813 221.344 53.7698C223.375 55.5558 225.795 56.444 228.584 56.444C230.597 56.444 232.492 55.9853 234.238 55.0727C235.996 54.1577 237.229 53.2574 237.958 52.3961L239.058 51.0541L243.744 55.7437C243.598 55.9291 243.384 56.1975 243.087 56.5343C242.795 56.871 242.163 57.4492 241.207 58.2666C240.24 59.0718 239.221 59.7867 238.134 60.4187C237.059 61.0385 235.648 61.6143 233.931 62.1389C232.198 62.6806 230.43 62.949 228.586 62.949C223.674 62.949 219.443 61.1336 215.888 57.5322C212.327 53.9162 210.542 49.5876 210.542 44.5198C210.542 39.6496 212.274 35.4846 215.739 32.0149C219.202 28.5502 223.365 26.8129 228.214 26.8129C233.071 26.8129 237.115 28.4233 240.334 31.6514C243.569 34.8917 245.181 38.9371 245.181 43.8171L244.792 47.4039H217.719L217.721 47.4112ZM278.594 27.5571L286.517 51.403L294.481 27.5547H302.068L290.138 62.2389H283.28L275.345 39.1323L267.41 62.2389H260.552L248.627 27.5571H256.214L264.176 51.403L272.096 27.5547L278.594 27.5571ZM316.576 35.3016C314.791 36.8314 313.609 38.8347 312.992 41.2795H333.054C332.621 38.8347 331.534 36.8314 329.771 35.3016C328.001 33.7546 325.8 32.9885 323.142 32.9885C320.54 32.9885 318.351 33.7546 316.576 35.2991V35.3016ZM312.671 47.4112C313.045 49.8585 314.251 51.9813 316.294 53.7698C318.322 55.5558 320.739 56.444 323.531 56.444C325.544 56.444 327.439 55.9853 329.182 55.0727C330.943 54.1577 332.178 53.2574 332.903 52.3961L334.005 51.0541L338.686 55.7437C338.54 55.9291 338.326 56.1975 338.029 56.5343C337.737 56.871 337.105 57.4492 336.15 58.2666C335.182 59.0718 334.163 59.7867 333.076 60.4187C332.001 61.0385 330.59 61.6143 328.874 62.1389C327.14 62.6806 325.367 62.949 323.529 62.949C318.616 62.949 314.385 61.1336 310.827 57.5322C307.267 53.9162 305.482 49.5876 305.482 44.5198C305.482 39.6496 307.214 35.4846 310.679 32.0149C314.139 28.5502 318.303 26.8129 323.147 26.8129C328.01 26.8129 332.047 28.4233 335.272 31.6514C338.506 34.8917 340.118 38.9371 340.118 43.8171L339.729 47.4039H312.663L312.671 47.4112ZM373.611 53.0573C375.717 50.8003 376.78 48.0846 376.78 44.898C376.78 41.7114 375.715 38.9835 373.609 36.7241C371.486 34.4671 369.071 33.3374 366.331 33.3374C363.592 33.3374 361.163 34.4671 359.028 36.7241C356.905 38.9835 355.842 41.7114 355.842 44.898C355.842 48.0846 356.905 50.8027 359.028 53.0573C361.163 55.3167 363.592 56.444 366.331 56.444C369.071 56.444 371.486 55.3167 373.609 53.0573H373.611ZM378.966 32.0881C382.322 35.609 384 39.8717 384 44.8858C384 49.8878 382.322 54.1455 378.935 57.6713C375.566 61.1897 371.605 62.9514 367.043 62.9514C365.754 62.9514 364.49 62.7904 363.254 62.4805C362.014 62.1828 360.968 61.7924 360.093 61.3337C359.237 60.8799 358.459 60.4065 357.788 59.9234C357.131 59.4403 356.645 59.0645 356.365 58.7815L355.84 58.2447V62.2365H348.647V11.6411H355.845V31.5367C356.166 31.2146 356.635 30.7705 357.255 30.2338C357.856 29.697 359.147 28.982 361.092 28.1207C363.038 27.2472 365.027 26.8178 367.041 26.8178C371.632 26.8178 375.605 28.5648 378.964 32.0881H378.966ZM8.60369 17.8387L22.2461 8.03972C22.7811 7.64933 23.3331 7.57125 23.6978 7.57125C24.1477 7.57125 24.5903 7.69325 24.9794 7.92748L51.6805 23.9093C52.4344 24.3583 52.9013 25.1781 52.9013 26.0565C52.9013 26.9276 52.4344 27.7474 51.6854 28.1988L43.5048 33.0934L28.8581 24.3266C27.2629 23.3799 25.4779 22.9041 23.6978 22.9041C21.6381 22.9041 19.5808 23.5385 17.8372 24.7926L7.56045 32.1735V19.876C7.56045 19.0709 7.94954 18.3145 8.60126 17.846L8.60369 17.8387ZM54.1099 39.4325L46.7415 43.8488L51.6854 46.8012C52.4392 47.255 52.9013 48.0749 52.9013 48.9484C52.9013 49.8268 52.4392 50.6442 51.6854 51.0956L24.977 67.0774C24.5927 67.3068 24.1502 67.4288 23.7003 67.4288C23.3355 67.4288 22.7859 67.3482 22.2412 66.9578L8.60369 57.1589C7.95197 56.6904 7.56288 55.934 7.56288 55.1337V42.7679C7.56288 41.9627 7.95197 41.2063 8.60369 40.7379L22.2412 30.9389C22.7811 30.5485 23.3306 30.4704 23.7003 30.4704C24.1502 30.4704 24.5903 30.5924 24.977 30.8242L36.1389 37.5L24.9818 44.1782C24.5927 44.41 24.155 44.532 23.7003 44.532C23.3355 44.532 22.7835 44.4515 22.2412 44.0635L15.9599 39.5496L10.8896 43.1754V45.225L17.8372 50.2147C19.5833 51.4689 21.6405 52.1057 23.6978 52.1057C25.4828 52.1057 27.2653 51.6323 28.8605 50.6808L55.5617 34.7038C58.6014 32.886 60.4642 29.6042 60.4642 26.059C60.4642 22.5112 58.6038 19.227 55.5641 17.4092L28.8605 1.42739C27.2629 0.475796 25.4804 0 23.6978 0C21.6357 0 19.5808 0.634394 17.8372 1.88854L4.19485 11.6899C1.56121 13.5785 0 16.626 0 19.8687V32.2321C0 34.1548 0.688198 35.9165 1.68767 37.5024C0.69063 39.0835 0 40.8403 0 42.7679V55.1313C0 58.3764 1.56121 61.4215 4.19485 63.3125L17.8372 73.1115C19.5808 74.3632 21.6357 75 23.6978 75C25.4779 75 27.2629 74.5266 28.8581 73.5702L55.5592 57.5956C58.599 55.7779 60.4617 52.4961 60.4617 48.9484C60.4617 45.4055 58.6014 42.1238 55.5617 40.3035L54.1099 39.4349V39.4325Z" fill="#E44850"/>
</svg>
